<svg xmlns="http://www.w3.org/2000/svg" version="1.1" xmlns:xlink="http://www.w3.org/1999/xlink" xmlns:svgjs="http://svgjs.dev/svgjs" width="360px" height="360px"><svg width="360px" height="360px" viewBox="0 0 360 360" version="1.1" xmlns="http://www.w3.org/2000/svg" xmlns:xlink="http://www.w3.org/1999/xlink">
    <title>logo</title>
    <g id="SvgjsG1030" stroke="none" stroke-width="1" fill="none" fill-rule="evenodd">
        <path d="M340,0 C351.045695,-3.55271368e-15 360,8.954305 360,20 L360,340 C360,351.045695 351.045695,360 340,360 L20,360 C8.954305,360 0,351.045695 0,340 L0,20 C0,8.954305 8.954305,0 20,0 L340,0 Z M311.282051,28.7179487 L149.230769,28.7179487 C138.185074,28.7179487 129.230769,37.6722537 129.230769,48.7179487 L129.230769,311.282051 C129.230769,322.327746 138.185074,331.282051 149.230769,331.282051 L311.282051,331.282051 C322.327746,331.282051 331.282051,322.327746 331.282051,311.282051 L331.282051,48.7179487 C331.282051,37.6722537 322.327746,28.7179487 311.282051,28.7179487 Z M39.0564103,216.45933 C28.5884901,216.45933 20.1025641,224.942356 20.1025641,235.406699 C20.1025641,245.871041 28.5884901,254.354067 39.0564103,254.354067 C49.5243304,254.354067 58.0102564,245.871041 58.0102564,235.406699 C58.0102564,224.942356 49.5243304,216.45933 39.0564103,216.45933 Z M90.174359,216.45933 C79.7064388,216.45933 71.2205128,224.942356 71.2205128,235.406699 C71.2205128,245.871041 79.7064388,254.354067 90.174359,254.354067 C100.642279,254.354067 109.128205,245.871041 109.128205,235.406699 C109.128205,224.942356 100.642279,216.45933 90.174359,216.45933 Z M39.0564103,161.339713 C28.5884901,161.339713 20.1025641,169.822739 20.1025641,180.287081 C20.1025641,190.751424 28.5884901,199.23445 39.0564103,199.23445 C49.5243304,199.23445 58.0102564,190.751424 58.0102564,180.287081 C58.0102564,169.822739 49.5243304,161.339713 39.0564103,161.339713 Z M90.174359,161.339713 C79.7064388,161.339713 71.2205128,169.822739 71.2205128,180.287081 C71.2205128,190.751424 79.7064388,199.23445 90.174359,199.23445 C100.642279,199.23445 109.128205,190.751424 109.128205,180.287081 C109.128205,169.822739 100.642279,161.339713 90.174359,161.339713 Z M39.0564103,106.220096 C28.5884901,106.220096 20.1025641,114.703121 20.1025641,125.167464 C20.1025641,135.631807 28.5884901,144.114833 39.0564103,144.114833 C49.5243304,144.114833 58.0102564,135.631807 58.0102564,125.167464 C58.0102564,114.703121 49.5243304,106.220096 39.0564103,106.220096 Z M90.174359,106.220096 C79.7064388,106.220096 71.2205128,114.703121 71.2205128,125.167464 C71.2205128,135.631807 79.7064388,144.114833 90.174359,144.114833 C100.642279,144.114833 109.128205,135.631807 109.128205,125.167464 C109.128205,114.703121 100.642279,106.220096 90.174359,106.220096 Z" id="SvgjsPath1029" fill="#0E323A"></path>
    </g>
</svg><style>@media (prefers-color-scheme: light) { :root { filter: none; } }
@media (prefers-color-scheme: dark) { :root { filter: none; } }
</style></svg>